<svg xmlns="http://www.w3.org/2000/svg" viewBox="0 0 150 150"><circle cx="75" cy="75" r="75" style="fill:#e78f13"/><path d="M94.2 86.7c-1 0-1.5-.6-1.5-1.5v-1.9s0-.1.1-.1h2s.1 0 .1.1v2c0 .5.2.8.6.8h2s.1 0 .1.1v.3s0 .1-.1.1h-3.4ZM99.6 86.7c-1.3 0-1.8-.6-1.8-1.6v-1.8s0-.1.1-.1h1.9s.1 0 .1.1v1.8c0 .6.3 1 .8 1h.9c.6 0 .9-.4.9-1v-1.8s0-.1.1-.1h.6s.1 0 .1.1v1.8c0 .9-.6 1.6-1.8 1.6h-2.2ZM108.1 86.7c-.1 0-.2 0-.3-.1l-1.4-1.3-1.7 1.3s-.2.1-.3.1h-.5l2.1-1.5-1.8-1.6v-.1h2.3000000000000003c.1 0 .2 0 .3.1l1 .9 1.2-.9s.2-.1.3-.1h.5l-1.6 1.2 2.3 2h-2.3000000000000003ZM112.5 86.7c-1.3 0-1.8-.6-1.8-1.6v-1.8s0-.1.1-.1h1.9s.1 0 .1.1v1.8c0 .6.3 1 .8 1h.9c.6 0 .9-.4.9-1v-1.8s0-.1.1-.1h.6s.1 0 .1.1v1.8c0 .9-.6 1.6-1.8 1.6h-2.2ZM121.3 86.7c-.1 0-.2 0-.3-.1l-1.6-1.6v-.4s0-.1.1-.1h.7c.3 0 .5-.1.5-.4s-.2-.3-.5-.3H119v2.8s0 .1-.1.1h-1.8s-.1 0-.1-.1v-3.3s0-.1.1-.1h4.6c.6 0 1.1.4 1.1.9s-.5.9-1 1l1.4 1.5h-1.8ZM124.9 86.7s-.1 0-.1-.1v-1.2l-1.9-2h2.2s.2 0 .2.1l1.4 1.5 1.4-1.5h.5l-1.9 2v1.3s0 .1-.1.1h-1.8ZM39.5 86.8c-.3 0-.5-.2-.5-.5v-4.5l-5 4.5c-.4.3-.8.5-1.1.5h-1c-.4 0-.8-.1-1.2-.5l-5.6-4.5v4.5c0 .3-.2.5-.5.5h-1.7c-.3 0-.5-.2-.5-.5V75.1c0-.3.2-.5.5-.5h1.5c.4 0 .8.2 1.1.5l8.4 7.6 9-7.6c.4-.3.8-.5 1.3-.5h1.3c.3 0 .5.2.5.5v11.2c0 .3-.2.5-.5.5h-5.9ZM48.3 86.8c-.3 0-.5-.2-.5-.5V75.1c0-.3.2-.5.5-.5h6.1c.3 0 .5.2.5.5v11.2c0 .3-.2.5-.5.5zm15.1 0c-.5 0-.8-.1-1.2-.5L56.1 81c-.3-.2-.3-.4-.3-.9v-.5c0-.4 0-.6.4-.7l7.1-3.8c.5-.3 1-.5 1.5-.5h3.6c.3 0 .4.1.4.3s0 .2-.2.3L61.5 79l8.3 7c.2.1.3.3.3.4s-.2.4-.5.4h-6.1ZM83.7 86.4c-.2.2-.5.4-.8.4h-1.2c-.3 0-.6-.1-.8-.4l-11-11.2c-.1-.1-.2-.2-.2-.3 0-.2.1-.3.4-.3h7.5c.4 0 .7.1.9.4l6.9 7.2 7.2-7.2c.2-.2.5-.4.9-.4h1q.3 0 .3.3c0 .3 0 .2-.1.3L83.5 86.4ZM125.2 68.3c-6.2-4.4-13.3-5.6-20.6-5.9h-1.1c-1.2-.2-2.4-.1-3.6 0-1.7 0-3.5.1-5.2.2-.3 0-.6 0-.9-.1-3.9-2-8-3.8-12.1-5.5-2-.9-4-1.8-6.2-2.3-4.5-.8-8.9-.7-13.4-.4h-.6c-4.5.3-8.9 1.2-13.3 2.6-3.4.9-6.8 2-10.3 3-.6.2-1.2.3-1.9.5-2.6.8-5.2 1.5-7.9 1.7-1.4 0-2.8 0-4.1-.1-1.3 0-1.8.7-1.5 1.9.1.4.2.9.3 1.3 0 .3.1.7-.1.9-1.1 1.3-1.2 2.8-1.3 4.4-.2 1.6-.1 1.7 1.6 1.7h.4c.5 0 .5-.1.4-.6-.4-1.1-.5-2.1-.3-3.3.2-.6.5-1.1 1.1-1.2 1.4-.4 2.9-.6 4.4-.8 2-.3 4-.5 5.9-.8-.8-.1-1.6-.1-2.4-.1-2.2 0-4.5-.1-6.7-.2-.2 0-.4 0-.5-.2 0-.2.2-.3.4-.4.4-.2.9-.2 1.3-.2.8 0 1.7 0 2.5-.3.4 0 .9 0 1.3-.2 2.4-.4 4.9-.9 7.2-1.7.6-.2 1.3-.3 1.9-.5 2.9-.8 5.9-1.6 8.7-2.7h.3c4.4-1.6 8.9-2.5 13.5-2.9h.5c6.4-.3 12.6.1 18.4 3 2.7 1.3 5.4 2.6 8.3 3.9-1.4.5-2.6.9-3.8 1.3 2.5-.2 5.1-.4 7.6-.5h8.2c1.7.2 3.3.3 5 .5 1.2.1 2.4.3 3.8.7-3.1.4-5.3 1.8-6.8 4.4 2.3-1.7 4.7-2.9 7.7-2.8 2.9.1 5.3 1.6 7.5 3.5-.6-1.4-1.1-2-3.6-3.9h.2c3.6 1.2 7 2.9 10 5.4.2.2.4.5.8.5h2.5c-.6-1.3-1.9-2.7-3.6-3.9Z"/><path d="M96.3 67.6c-1.6 0-3.2.2-4.7.3-1.5 0-3 .2-4.5.3.3 0 .5 0 .8.1 2 0 4.1.2 6.1.2.2 0 .5 0 .6.2.1.3-.2.4-.3.6-.6.9-1.5.9-2.4.9-10.9.2-21.7.3-32.6.5h-4.7v.2c1.6 0 3.1.1 4.7 0 10.4.2 20.9.3 31.3.5 3.7 0 3.7 0 6.2-2.6.2-.2.6-.5.4-.8-.2-.4-.6-.3-.9-.3ZM45.1 64.2h39.1c-.4 0-.8-.1-1.2-.2-.2-.3-.3-.6-.2-1 .4-1.2 0-1.6-1.2-1.6H78c-.3 0-.7-.1-.8.3 0 .3.1.6.3.8.6.7 1.4.8 2.3.8.3 0 .7 0 .6.3 0 .4-.4.1-.6.1-3.3 0-6.7-.3-10-.2-1.5-.2-3.1-.1-4.6-.1-3.7 0-7.5-.1-11.2-.2-.8-.1-1.6 0-2.3 0s-1.3-.2-1.9-.5c-.6-.4-.6-.6 0-.9.7-.4 1.4-.8 2.2-1.2 1.8-.9 3.8-1.5 5.8-2.1h.4c5-1.2 10-1.3 15-.6 1.2.2 2.4.3 3.6.5-2.9-.9-5.8-1.3-8.8-1.4-3.7-.1-7.3.2-10.8 1.1-3.2.6-6.3 1.7-9.2 3.1 0 0-.2.1-.3.2-.5.3-.6.7-.2 1.2.3.3.6.6.9 1-1.1.3-2.2.5-3.3.7v.1ZM39.9 65.6c-2.5.6-4.6 1.9-5.6 4.4 4.8-3.8 9.6-3.9 14.7-.5-2.1-3.3-5.2-4.7-9-3.9ZM23.9 92.3c.9-.9 2.2-1.5 3.6-1.5l-.5 2.6h-3.9c.2-.4.5-.8.8-1.1M31.1 90.7l-.6 2.6h-2.3l.5-2.6zM36.7 90.7l-.5 2.6h-3.8l.5-2.6zM43.9 90.7l-.6 2.6h-4.6l.5-2.6zM52.4 90.7l-.5 2.6h-5.7l.5-2.6z"/><path d="M23.1 93.3H27l-.5 2.6h-4.1c0-1 .3-1.8.7-2.6M30.5 93.3 30 96h-2.3l.5-2.7zM36.2 93.3l-.5 2.7h-3.8l.5-2.7zM43.3 93.3l-.5 2.7h-4.6l.5-2.7zM51.9 93.3l-.5 2.7h-5.7l.5-2.7zM102.5 94.1v-.8h-.6l.5.8zM113.4 93.7h1.3l-.2-.4h-.9zM69.6 93.7h1.2l-.2-.4h-.9z"/><path d="M119.9 93.3v.8h2.2v.8H119v-1.6h-3.4l.9 1.6h-1.1l-.3-.6h-2l-.3.6h-1.1l.9-1.6h-4.2v1.6h-1v-1.6h-4v1.6h-1.5l-1.3-1.6h-.6v1.6h-1v-1.6h-3v.3h-2.4v.5h2.5v.8h-3.5v-1.6h-2.9c0 .2-.2.3-.5.3.3 0 .5.2.5.7v.5h-1v-.4c0-.3 0-.4-.4-.4h-1.5v.8h-1v-1.6h-7.3c0 .2-.2.3-.5.3.3 0 .5.2.5.7v.5h-1v-.4c0-.3 0-.4-.4-.4h-1.5v.8h-1v-1.6h-3.4l.9 1.6H71l-.3-.6h-2l-.3.6h-1.1l.9-1.6h-6.4v.2c0 .5 0 .6.6.6h1c.4 0 .6 0 .6-.4h1v.3c0 .5-.2 1-1.2 1h-1.6c-.9 0-1.4-.2-1.4-1.1v-.5h-6.1l-.5 2.6h68.9c1.4 0 2.7-.6 3.7-1.5.3-.3.6-.7.8-1.1h-8.1Z"/><path d="M78 93c0-.4-.1-.4-.4-.4h-1.5v.8h1.6c.3 0 .4-.1.4-.3ZM89.1 93c0-.4-.1-.4-.4-.4h-1.5v.8h1.6c.3 0 .4-.1.4-.3ZM69.7 93.3h.9l-.4-.8zM100.1 92.6v.7h.6z"/><path d="m55.6 90.7-.5 2.6h6.1v-.5c0-.9.5-1.1 1.4-1.1h1.1c1.4 0 1.6.3 1.6 1.2h-1c0-.3-.2-.4-.5-.4h-1.1c-.5 0-.6.2-.6.6v.2h6.4l.9-1.6h1.3l.9 1.6H75v-1.6h2.9c.7 0 .9.4.9.9v.6h7.3v-1.6H89c.7 0 .9.4.9.9v.6h2.9v-1.6h3.5v.7h-2.5v.5h2.4v.3h3v-1.6h1.5L102 93h.6v-1.6h1V93h4v-.8h-1.4v-.8h3.7v.8h-1.4v.8h4.2l.9-1.6h1.3l.9 1.6h3.4v-1.6h1V93h8.1c.4-.8.7-1.7.7-2.6H55.6Z"/><path d="M113.6 93.3h.9l-.5-.8z"/></svg>